<svg width="40" height="40" viewBox="0 0 40 40" fill="none" xmlns="http://www.w3.org/2000/svg">
<circle cx="20" cy="20" r="20" fill="white"/>
<path fill-rule="evenodd" clip-rule="evenodd" d="M27.1731 15.0001L13.7676 15.0001L13.7676 25L27.1731 25C27.4372 24.9996 27.6902 24.8905 27.8769 24.6967C28.0637 24.5028 28.1687 24.24 28.1691 23.9657L28.1691 16.0344C28.1688 15.7601 28.0637 15.4974 27.877 15.3035C27.6903 15.1096 27.4372 15.0004 27.1731 15.0001L27.1731 15.0001ZM10 16.0344L10 23.9656C10.0004 24.2398 10.1055 24.5027 10.2922 24.6964C10.4788 24.8903 10.7319 24.9995 10.9958 24.9999L13.1007 24.9999L13.1007 15L10.9958 15C10.7319 15.0004 10.4787 15.1095 10.2921 15.3033C10.1054 15.4972 10.0004 15.7602 10 16.0343L10 16.0344ZM30 22.097L30 17.9033L28.8359 17.9033L28.8359 22.097L30 22.097Z" fill="black"/>
</svg>
