<svg width="40" height="40" viewBox="0 0 40 40" fill="none" xmlns="http://www.w3.org/2000/svg">
<circle cx="20" cy="20" r="20" fill="white"/>
<path d="M15.5176 25.9211L21.8169 19.3357V28.0495C21.8149 28.3871 21.6419 28.6981 21.3624 28.8667C21.2266 28.9569 21.0685 29.003 20.9078 28.9998C20.7487 29.001 20.5919 28.9583 20.4534 28.8762L15.5176 25.9211ZM25.2529 15.7437L23.9349 17.1216C24.3379 17.842 24.5482 18.6626 24.544 19.4972C24.5437 20.7549 24.0664 21.9613 23.2168 22.8517L24.4893 24.2486C25.54 23.1532 26.1913 21.7083 26.3308 20.1638C26.4702 18.6194 26.089 17.0726 25.253 15.791L25.2529 15.7437ZM27.8527 13.0259L26.5437 14.3944C27.6096 15.8616 28.1846 17.6547 28.1798 19.4973C28.1818 20.6207 27.9709 21.7331 27.559 22.7705C27.147 23.808 26.5424 24.7496 25.78 25.5412L27.0708 26.8905H27.0709C28.8025 25.0805 29.8387 22.6693 29.9827 20.1137C30.1268 17.5582 29.3689 15.0364 27.8526 13.0262L27.8527 13.0259ZM26.6255 10.2701L21.8171 15.2969V10.9445C21.8151 10.6071 21.6421 10.296 21.3625 10.1273C21.2244 10.0439 21.0676 10 20.908 10C20.7485 10 20.5918 10.0439 20.4536 10.1273L14.2996 13.7953H10.9091C10.6679 13.7953 10.4367 13.8955 10.2663 14.0737C10.0959 14.2519 10 14.4935 10 14.7457V24.2483C10 24.5003 10.0959 24.7421 10.2663 24.9203C10.4367 25.0984 10.6679 25.1985 10.9091 25.1985H12.3453L10.2637 27.3746L11.5545 28.724L27.9164 11.6191L26.6255 10.2701Z" fill="black"/>
</svg>
