<svg width="40" height="40" viewBox="0 0 40 40" fill="none" xmlns="http://www.w3.org/2000/svg">
<circle cx="20" cy="20" r="20" fill="white"/>
<path d="M10.8695 23.0437C10.3887 23.0437 10 22.6541 10 22.1742V17.8262C10 17.3462 10.3887 16.9567 10.8695 16.9567C11.3503 16.9567 11.739 17.3462 11.739 17.8262V22.1742C11.739 22.6541 11.3503 23.0437 10.8695 23.0437Z" fill="black"/>
<path d="M13.4782 26.5218C12.9974 26.5218 12.6087 26.1323 12.6087 25.6523V14.348C12.6087 13.8681 12.9974 13.4785 13.4782 13.4785C13.9591 13.4785 14.3477 13.8681 14.3477 14.348V25.6523C14.3477 26.1323 13.9591 26.5218 13.4782 26.5218Z" fill="black"/>
<path d="M16.0869 30C15.6061 30 15.2174 29.6104 15.2174 29.1305V10.8695C15.2174 10.3896 15.6061 10 16.0869 10C16.5678 10 16.9565 10.3896 16.9565 10.8695V29.1305C16.9565 29.6104 16.5678 30 16.0869 30Z" fill="black"/>
<path d="M18.6956 29.1306C18.2148 29.1306 17.8261 28.741 17.8261 28.261V11.7393C17.8261 11.2594 18.2148 10.8698 18.6956 10.8698C19.1765 10.8698 19.5652 11.2594 19.5652 11.7393V28.261C19.5652 28.741 19.1765 29.1306 18.6956 29.1306Z" fill="black"/>
<path d="M21.3044 25.6524C20.8235 25.6524 20.4348 25.2628 20.4348 24.7829V15.2175C20.4348 14.7375 20.8235 14.348 21.3044 14.348C21.7852 14.348 22.1739 14.7375 22.1739 15.2175V24.7829C22.1739 25.2628 21.7852 25.6524 21.3044 25.6524Z" fill="black"/>
<path d="M23.9131 29.1306C23.4322 29.1306 23.0435 28.741 23.0435 28.261V11.7393C23.0435 11.2594 23.4322 10.8698 23.9131 10.8698C24.3939 10.8698 24.7826 11.2594 24.7826 11.7393V28.261C24.7826 28.741 24.3939 29.1306 23.9131 29.1306Z" fill="black"/>
<path d="M26.5218 25.6524C26.041 25.6524 25.6523 25.2628 25.6523 24.7829V15.2175C25.6523 14.7375 26.041 14.348 26.5218 14.348C27.0026 14.348 27.3913 14.7375 27.3913 15.2175V24.7829C27.3913 25.2628 27.0026 25.6524 26.5218 25.6524Z" fill="black"/>
<path d="M29.1305 23.0437C28.6497 23.0437 28.261 22.6541 28.261 22.1742V17.8262C28.261 17.3462 28.6497 16.9567 29.1305 16.9567C29.6113 16.9567 30 17.3462 30 17.8262V22.1742C30 22.6541 29.6113 23.0437 29.1305 23.0437Z" fill="black"/>
</svg>
