<svg width="40" height="40" viewBox="0 0 40 40" fill="none" xmlns="http://www.w3.org/2000/svg">
<circle cx="20" cy="20" r="20" fill="white"/>
<path d="M26.6666 20.6667C25.9306 20.6667 25.3333 21.264 25.3333 22V21.3333C25.3333 20.5973 24.736 20 24 20C23.264 20 22.6666 20.5973 22.6666 21.3333V20.6667C22.6666 19.9307 22.0693 19.3333 21.3333 19.3333C20.5973 19.3333 20 19.9307 20 20.6667V16.6667C20 15.9307 19.4026 15.3333 18.6666 15.3333C17.9306 15.3333 17.3333 15.9307 17.3333 16.6667V24C17.3333 24.646 16.5519 24.9793 16 24.2919L14.6667 22.8126C14.2814 22.3753 13.9893 22 13.3333 22C12.5941 22 12 22.604 12 23.3333C12 23.7393 12.146 24.042 12.656 24.6666L16.6666 29.1981C17.1252 29.6874 17.3959 30 17.9999 30H26.6666C27.4273 30 27.9999 29.3853 27.9999 28.6667V22C27.9999 21.264 27.4026 20.6667 26.6666 20.6667L26.6666 20.6667ZM15.6087 21.8647L16.0001 22.3006V16.6667C16.0001 15.196 17.1961 14 18.6668 14C20.1374 14 21.3334 15.196 21.3334 16.6667V18C22.0694 18 22.7361 18.2994 23.2194 18.7833C23.4662 18.7073 23.7288 18.6666 24.0001 18.6666C24.3388 18.6666 24.66 18.7366 24.9595 18.8527C25.1974 18.1666 25.3334 17.4333 25.3334 16.6666C25.3334 12.9847 22.3487 10 18.6668 10C14.9848 10 12.0001 12.9847 12.0001 16.6666C12.0001 18.1699 12.5034 19.5519 13.3428 20.6674C14.5622 20.6714 15.1921 21.3888 15.6087 21.8649L15.6087 21.8647Z" fill="black"/>
</svg>
