<svg xmlns="http://www.w3.org/2000/svg" width="152" height="41" viewBox="0 0 152 41" fill="none"><g fill="white"><path d="M41.3429 20.2297C41.8936 16.9328 43.1523 14.3424 45.2763 12.6155C47.4003 10.8886 50.0749 9.94664 53.3789 9.94664C54.7949 9.94664 55.9749 10.1036 56.9189 10.4176C57.8629 10.7316 58.6496 11.1241 59.2003 11.6736L59.4363 10.3391H66.4376L63.2909 30.1987H56.2896L56.5256 28.8643C55.7389 29.4138 54.8736 29.8062 53.8509 30.1202C52.8283 30.4342 51.5696 30.5912 50.1536 30.5912C46.8496 30.5912 44.5683 29.8062 43.2309 28.3148C41.8936 26.8234 41.1069 24.7825 41.1069 22.6631C41.1069 21.8781 41.1856 21.0931 41.3429 20.2297ZM58.1776 17.3253C57.3909 16.5403 56.1323 16.1479 54.3229 16.1479C50.9403 16.1479 49.0523 17.4823 48.6589 20.2297C48.5803 20.5437 48.5803 20.8576 48.5803 21.0931C48.5803 23.2125 50.0749 24.233 53.0643 24.233C54.8736 24.233 56.2896 23.8405 57.2336 23.0555L58.1776 17.3253Z"></path><path d="M91.2963 10.2606L88.1496 30.1202H81.1483L81.5416 27.8438C80.283 28.5503 79.0243 29.1783 77.687 29.7278C76.3496 30.1987 75.0123 30.5127 73.7536 30.5127C71.2363 30.5127 69.4269 29.9632 68.3256 28.7858C67.2243 27.6083 66.8309 26.1169 67.1456 24.233L69.4269 10.1821H76.4283L74.6189 21.4071C74.5403 22.0351 74.6976 22.5846 75.2483 22.9771C75.799 23.3695 76.4283 23.605 77.2936 23.605C77.7656 23.605 78.2376 23.5265 78.7096 23.448C79.1816 23.291 79.6536 23.134 80.1256 22.9771C80.5976 22.8201 80.9909 22.5846 81.4629 22.4276C81.9349 22.2706 82.2496 22.0351 82.5643 21.8781L84.4523 10.1821H91.2963V10.2606Z"></path><path d="M106.794 30.1202L107.03 28.7858C106.243 29.3353 105.378 29.7278 104.355 30.0417C103.254 30.3557 102.074 30.5127 100.658 30.5127C97.3536 30.5127 94.9936 29.6493 93.4203 27.8438C91.9256 26.1169 91.375 23.5265 91.9256 20.2297C92.4763 16.9328 93.735 14.3424 95.859 12.6155C97.983 10.8886 100.658 9.94664 103.962 9.94664C105.378 9.94664 106.558 10.1036 107.502 10.4176C108.446 10.7316 109.232 11.1241 109.783 11.6736L110.806 5.15835H117.807L113.795 30.1987H106.794V30.1202ZM108.839 17.3253C108.052 16.5403 106.794 16.1479 104.984 16.1479C101.602 16.1479 99.7136 17.4823 99.3203 20.2297C98.8483 22.8986 100.343 24.3115 103.726 24.3115C105.535 24.3115 106.951 23.919 107.895 23.134L108.839 17.3253Z"></path><path d="M116.784 30.1202L119.931 10.2606H126.932L123.786 30.1202H116.784ZM122.291 9.08318C121.583 9.08318 120.954 8.84769 120.56 8.45521C120.167 8.06272 120.01 7.51325 120.088 6.88528L120.246 6.02181C120.324 5.39384 120.639 4.84437 121.19 4.45189C121.74 4.0594 122.37 3.82391 123.156 3.82391H125.752C126.46 3.82391 127.09 4.0594 127.483 4.45189C127.876 4.84437 128.112 5.39384 127.955 6.02181L127.798 6.88528C127.64 7.51325 127.326 8.06272 126.775 8.45521C126.224 8.84769 125.595 9.08318 124.808 9.08318H122.291Z"></path><path d="M130.708 5.07986H137.71L136.687 11.5951C137.395 11.0456 138.339 10.6531 139.362 10.3391C140.384 10.0251 141.643 9.86814 143.059 9.86814C146.363 9.86814 148.723 10.7316 150.296 12.537C151.791 14.2639 152.342 16.8543 151.791 20.1512C151.24 23.448 149.903 26.0384 147.858 27.7653C145.734 29.4923 143.059 30.4342 139.755 30.4342C138.339 30.4342 137.159 30.2772 136.215 29.9632C135.271 29.6493 134.563 29.2568 133.934 28.7073L133.698 30.0417H126.696L130.708 5.07986ZM134.799 23.134C135.586 23.919 136.844 24.3115 138.654 24.3115C142.036 24.3115 143.924 22.9771 144.396 20.2297C144.79 17.5608 143.374 16.1479 139.991 16.1479C138.182 16.1479 136.766 16.5403 135.822 17.3253L134.799 23.134Z"></path></g><path d="M20.59 0.467057C20.1792 0.372497 19.7369 0.277936 19.3261 0.214896C15.3764 2.04307 13.607 5.35268 13.6702 9.22966C17.7462 9.38726 20.4636 11.5306 22.3279 14.9663C22.3279 14.9663 23.0862 16.4163 23.339 17.9923C23.339 18.6857 23.339 19.1585 23.339 19.6313C23.2758 23.4768 20.4636 26.0929 16.6403 25.6832C13.291 25.3049 10.7632 23.5083 9.15175 20.5769C7.85625 18.2129 7.60347 15.6598 8.4566 13.0751C8.80418 12.0665 9.12015 11.0894 9.24654 10.0177C9.59411 6.96021 10.7316 4.281 13.1646 2.26371C14.4917 1.1605 15.9768 0.467057 17.5567 0.0257751C9.6889 -0.415507 2.3583 4.84836 0.462461 12.823C-1.52818 21.1128 3.08505 29.4341 10.8896 32.3339L9.02536 40.1509C9.02536 40.1509 22.549 36.6207 29.6269 27.3853C29.6901 27.2907 29.7533 27.1962 29.7849 27.1331C31.3015 25.2734 32.4074 23.0355 33.0078 20.5769C35.1248 11.5937 29.5953 2.57891 20.59 0.467057Z" fill="#1DD4DF"></path><path d="M10.7 18.339C10.8896 20.0726 12.4695 21.9008 14.1441 22.3105C16.3244 22.8779 18.0622 21.491 18.0622 19.2216C18.0622 16.9836 16.3244 14.9033 14.1125 14.5251C12.0271 14.2098 10.4472 15.975 10.7 18.339ZM13.0066 17.2043C13.4174 16.8891 14.1441 17.2043 14.6813 17.8977C15.2184 18.5912 15.3132 19.4107 14.9341 19.6944C14.5233 20.0096 13.7966 19.6944 13.2594 19.0009C12.7223 18.3075 12.5959 17.4879 13.0066 17.2043Z" fill="#1DD4DF"></path></svg>